<?xml version="1.0" standalone="no"?>
<!DOCTYPE svg PUBLIC "-//W3C//DTD SVG 20010904//EN"
 "http://www.w3.org/TR/2001/REC-SVG-20010904/DTD/svg10.dtd">
<svg version="1.0" xmlns="http://www.w3.org/2000/svg"
 width="260.000000pt" height="260.000000pt" viewBox="0 0 260.000000 260.000000"
 preserveAspectRatio="xMidYMid meet">
<metadata>
Created by potrace 1.11, written by Peter Selinger 2001-2013
</metadata>
<g transform="translate(0.000000,260.000000) scale(0.100000,-0.100000)"
fill="#000000" stroke="none">
<path d="M2410 1543 c-92 -30 -101 -120 -16 -172 45 -28 66 -58 66 -92 0 -35
-48 -58 -86 -40 -33 15 -44 14 -44 -3 0 -8 10 -16 23 -18 14 -2 21 -9 19 -20
-2 -12 2 -16 13 -12 9 4 15 1 15 -9 0 -9 -10 -18 -22 -20 -23 -4 -23 -4 -1 -6
12 0 29 6 38 16 16 15 15 17 -4 28 -21 11 -20 12 14 28 66 32 70 107 7 155
-19 15 -46 37 -59 49 -47 45 -15 109 51 101 28 -3 33 -1 24 9 -11 14 -14 14
-38 6z"/>
<path d="M1322 1520 c0 -14 2 -19 5 -12 2 6 2 18 0 25 -3 6 -5 1 -5 -13z"/>
<path d="M1535 1533 c13 -9 14 -281 2 -300 -6 -9 -1 -13 15 -13 22 0 23 2 22
85 -1 69 2 87 15 95 15 9 15 9 -1 10 -14 0 -16 10 -15 58 l2 57 118 3 c73 2
125 -2 138 -9 17 -9 20 -8 17 3 -4 10 -41 14 -164 16 -87 1 -154 -1 -149 -5z"/>
<path d="M1887 1513 l-5 -28 15 23 c11 16 25 22 50 22 l34 0 -3 -155 c-3 -149
-2 -155 17 -155 19 0 20 6 17 155 l-3 155 134 0 c128 0 135 -1 150 -22 l15
-23 -5 28 -5 27 -203 0 -203 0 -5 -27z"/>
<path d="M800 1490 c-166 -31 -290 -72 -290 -95 0 -8 11 -22 25 -31 23 -15 29
-15 97 10 154 54 243 70 400 70 l146 1 -46 18 c-57 23 -166 47 -207 46 -16 -1
-73 -9 -125 -19z"/>
<path d="M145 1490 c-13 -21 -14 -58 -2 -68 11 -9 161 -72 172 -72 3 0 5 15 5
33 0 31 -4 35 -85 74 -49 25 -87 38 -90 33z"/>
<path d="M1321 1474 c0 -11 3 -14 6 -6 3 7 2 16 -1 19 -3 4 -6 -2 -5 -13z"/>
<path d="M1677 1350 c-37 -72 -64 -130 -59 -130 4 0 21 27 36 60 l29 60 57 0
57 0 24 -60 c15 -37 30 -60 39 -60 12 0 0 32 -47 130 -34 72 -64 130 -65 130
-2 0 -34 -59 -71 -130z m91 45 l22 -45 -50 0 -50 0 22 45 c12 25 25 45 28 45
3 0 16 -20 28 -45z"/>
<path d="M2125 1469 c-50 -30 -75 -77 -75 -140 0 -31 7 -47 33 -76 29 -31 40
-36 80 -37 125 -2 191 156 98 238 -25 23 -108 32 -136 15z m82 -9 c64 -23 97
-111 64 -172 -28 -53 -104 -71 -151 -35 -68 52 -67 155 2 197 38 23 44 24 85
10z"/>
<path d="M1323 1395 c0 -22 2 -30 4 -17 2 12 2 30 0 40 -3 9 -5 -1 -4 -23z"/>
<path d="M1615 1400 c4 -6 10 -8 15 -5 4 3 11 -1 13 -7 3 -8 6 -6 6 5 1 11 -6
17 -20 17 -11 0 -17 -5 -14 -10z"/>
<path d="M1323 1315 c0 -22 2 -30 4 -17 2 12 2 30 0 40 -3 9 -5 -1 -4 -23z"/>
<path d="M1095 1292 c-145 -73 -289 -107 -372 -87 -29 7 -31 5 -26 -14 3 -13
1 -21 -6 -21 -7 0 -10 -4 -6 -9 3 -5 1 -12 -5 -16 -6 -4 -8 -11 -4 -16 3 -6
12 -5 21 3 12 10 18 9 29 -7 8 -10 14 -15 14 -10 0 4 9 0 20 -10 11 -10 20
-15 20 -10 0 4 6 2 14 -4 11 -9 16 -9 21 0 6 8 10 7 16 -2 7 -11 9 -11 9 -1 0
7 5 10 10 7 6 -4 8 -10 5 -15 -3 -5 0 -12 7 -16 7 -4 10 -4 6 1 -4 4 -3 16 3
26 8 16 13 17 32 7 21 -11 21 -10 7 8 -8 11 -3 9 13 -6 23 -20 27 -21 21 -6
-5 14 -3 17 7 14 8 -3 20 2 27 11 8 9 11 10 7 4 -9 -18 10 -16 25 2 10 12 10
15 0 15 -8 0 -10 3 -7 7 4 3 16 -2 26 -11 19 -17 19 -17 14 2 -4 16 2 22 34
30 21 5 29 10 19 11 -11 1 -28 9 -39 18 -18 17 -17 19 40 70 32 29 56 52 53
51 -3 0 -27 -12 -55 -26z m-385 -136 c0 -2 -8 -10 -17 -17 -16 -13 -17 -12 -4
4 13 16 21 21 21 13z"/>
<path d="M1321 1254 c0 -11 3 -14 6 -6 3 7 2 16 -1 19 -3 4 -6 -2 -5 -13z"/>
<path d="M1322 1205 c0 -16 2 -22 5 -12 2 9 2 23 0 30 -3 6 -5 -1 -5 -18z"/>
<path d="M170 1205 c-25 -7 -39 -13 -32 -14 7 -1 10 -6 6 -13 -4 -6 -3 -8 4
-4 18 11 22 -10 7 -30 -17 -23 -19 -34 -4 -34 5 0 8 4 5 9 -3 5 1 11 8 14 15
6 15 -20 0 -46 -4 -6 4 -2 17 10 17 15 29 19 39 13 8 -5 18 -6 23 -3 5 3 6 -5
3 -18 -3 -13 -3 -18 0 -11 3 6 12 12 20 12 8 0 17 7 20 15 4 8 10 15 15 15 4
0 6 -6 3 -14 -4 -10 0 -13 13 -11 10 2 24 4 31 4 6 1 11 6 10 13 -2 7 3 13 10
14 6 1 17 2 23 3 5 0 7 6 4 11 -3 6 -2 10 4 10 5 0 13 -5 16 -10 9 -15 25 -2
19 15 -4 8 -11 12 -17 8 -6 -3 -7 -1 -3 5 4 6 2 21 -4 31 -9 17 -15 19 -36 11
-14 -6 -40 -8 -57 -6 -18 3 -48 7 -67 10 -19 3 -55 -1 -80 -9z"/>
<path d="M1321 1154 c0 -11 3 -14 6 -6 3 7 2 16 -1 19 -3 4 -6 -2 -5 -13z"/>
<path d="M1565 1150 c-3 -5 -1 -10 4 -10 6 0 11 5 11 10 0 6 -2 10 -4 10 -3 0
-8 -4 -11 -10z"/>
<path d="M1772 1105 c1 -30 5 -55 10 -55 4 0 8 25 8 55 0 30 -4 55 -9 55 -5 0
-9 -25 -9 -55z"/>
<path d="M1949 1121 c-21 -16 -22 -22 -11 -45 8 -19 19 -26 39 -26 20 0 24 -3
14 -9 -7 -5 -23 -7 -35 -4 -20 4 -20 4 -3 -11 19 -15 46 -11 59 8 13 19 8 74
-8 90 -20 20 -27 20 -55 -3z m49 -29 c3 -16 -2 -22 -17 -22 -26 0 -36 17 -20
36 16 19 33 13 37 -14z"/>
<path d="M2207 1128 c-17 -9 -22 -34 -11 -62 8 -21 60 -21 68 0 8 21 -2 33
-13 15 -5 -7 -15 -11 -22 -9 -9 4 -4 10 14 18 15 8 26 18 24 23 -5 16 -42 26
-60 15z m23 -23 c-7 -9 -15 -13 -17 -11 -7 7 7 26 19 26 6 0 6 -6 -2 -15z"/>
<path d="M2436 1125 c-18 -18 -22 -75 -5 -75 6 0 9 6 6 14 -3 7 1 26 9 41 17
33 13 42 -10 20z"/>
<path d="M1545 1099 c3 -18 8 -36 11 -41 8 -12 38 -10 52 4 14 14 16 68 2 68
-5 0 -10 -13 -10 -30 0 -20 -5 -30 -15 -30 -14 0 -17 5 -19 39 -1 8 -7 16 -14
19 -9 3 -11 -5 -7 -29z"/>
<path d="M1323 1075 c0 -22 2 -30 4 -17 2 12 2 30 0 40 -3 9 -5 -1 -4 -23z"/>
</g>
</svg>
